<?xml version="1.0" encoding="utf-8"?>
<?xml-stylesheet type="text/css" href="../../stylesheets/css/main.min.css"?>
<!-- Generator: Adobe Illustrator 16.0.0, SVG Export Plug-In . SVG Version: 6.00 Build 0)  -->
<svg class="jk-logo" version="1.2" baseProfile="tiny" xmlns="http://www.w3.org/2000/svg" xmlns:xlink="http://www.w3.org/1999/xlink"
	 x="0px" y="0px" width="2000px" height="2000px" viewBox="0 0 2000 2000" xml:space="preserve">
<path d="M1758.81,1000h-249.45l-298.68,296.32v-63.42c-54.33,49.07-125.87,79.42-204.47,80.95
	c-2.07,0.12-4.14,0.24-6.21,0.32v575.47v8.47v53.11l210.68-210.81v-345.61l172.74,173.01l127.02-126.59l-96.01-95.99L1758.81,1000z"
	/>
<circle cx="1000" cy="1000" r="237.5"/>
<path d="M686.1,999.97c0-173.36,140.54-313.9,313.9-313.9c0-20.98,0-39.38,0-63.37V49.99L789.14,260.85v372.54
	c0,26.7-4.68,50.27-14,70.74c-9.34,20.47-21.78,37.82-37.33,52.06c-15.56,14.24-33.11,25.14-52.65,32.7
	c-19.56,7.56-39.55,11.35-59.98,11.35c-30.23,0-59.56-8-87.99-24.03c-28.45-16.01-51.98-38.81-69.75-67.3L331.89,844.28
	c36.44,47.17,81.98,84.98,136.64,113.45c54.65,28.47,112.2,42.71,172.63,42.71c15.75,0,27.27,0.06,44.95,0.06
	C686.11,1000.32,686.1,1000.15,686.1,999.97z"/>
</svg>
